Coordinates
version=1
nRows=22
nColumns=24
inDegrees=yes

Units are S.I. units (second, meters, Newtons, ...)
Angles are in degrees.

endheader
time	pelvis_tilt	pelvis_list	pelvis_rotation	pelvis_tx	pelvis_ty	pelvis_tz	hip_flexion_r	hip_adduction_r	hip_rotation_r	knee_angle_r	ankle_angle_r	subtalar_angle_r	mtp_angle_r	hip_flexion_l	hip_adduction_l	hip_rotation_l	knee_angle_l	ankle_angle_l	subtalar_angle_l	mtp_angle_l	lumbar_extension	lumbar_bending	lumbar_rotation
      0.58400000	     -3.48001694	      0.96837748	      7.19511640	     -0.82205835	      1.00102262	      0.26152004	     26.39644449	      0.11242034	     -9.15467440	      5.33655774	      3.93231942	     -2.20761101	      1.02215883	    -14.38225748	      4.79956203	     10.03603751	     -4.62392115	     14.14717300	     -7.16042832	     -2.38943472	     -1.93779802	     -4.19934532	     -8.81417612
      0.58816667	     -3.42701790	      0.78140652	      7.20609393	     -0.81598728	      1.00042270	      0.26146760	     26.50887251	      0.36215270	     -9.05274787	      4.39964828	      4.09379696	     -2.50165495	      1.03279899	    -14.61353404	      4.58039921	      9.97740192	     -4.96695256	     14.20884470	     -7.17294587	     -2.38948330	     -1.90584897	     -3.94573399	     -8.82821228
      0.59233333	     -3.39529203	      0.60465351	      7.19613182	     -0.80984057	      0.99979356	      0.26145078	     26.63006104	      0.60991359	     -8.85362450	      3.45678274	      4.18344689	     -2.90132740	      1.08258086	    -14.77660618	      4.37243845	      9.65078733	     -5.41667047	     14.42916516	     -6.70537887	     -2.37756377	     -1.82486936	     -3.71044689	     -8.85172117
      0.59650000	     -3.33770621	      0.40388025	      7.21411014	     -0.80362231	      0.99924705	      0.26138944	     26.71197316	      0.87298035	     -8.74397391	      2.51034598	      4.26179323	     -3.22677970	      1.09906881	    -15.00586401	      4.13776133	      9.57781286	     -5.78384902	     14.46253300	     -6.70169971	     -2.37306529	     -1.77193551	     -3.43192272	     -8.86802190
      0.60066667	     -3.29637826	      0.22254190	      7.20889438	     -0.79735926	      0.99867436	      0.26140943	     26.77093150	      1.13767903	     -8.41631551	      1.64203466	      4.11744324	     -3.90240126	      1.17247951	    -15.17235297	      3.91899378	      9.25171655	     -6.25309226	     14.62762431	     -6.24825906	     -2.33044088	     -1.69068877	     -3.19500579	     -8.91077457
      0.60483333	     -3.24398227	      0.02539718	      7.21907334	     -0.79101875	      0.99816084	      0.26140736	     26.80668547	      1.41480372	     -8.15786523	      0.78518528	      3.96049411	     -4.49237725	      1.25306962	    -15.36703177	      3.68100679	      9.02923556	     -6.68417392	     14.69599070	     -5.98098886	     -2.27635992	     -1.61603023	     -2.93236450	     -8.94034590
      0.60900000	     -3.18528577	     -0.17360902	      7.22993665	     -0.78461665	      0.99767901	      0.26142557	     26.81020670	      1.70166119	     -7.85318263	     -0.01856257	      3.70237349	     -5.17626243	      1.34182497	    -15.56350234	      3.43882325	      8.80901706	     -7.12889965	     14.72366256	     -5.74271440	     -2.20645164	     -1.54298550	     -2.67313576	     -8.98101569
      0.61316667	     -3.14948462	     -0.36508622	      7.25419893	     -0.77818113	      0.99720029	      0.26144966	     26.81746351	      1.97929581	     -7.53584907	     -0.77275430	      3.33751365	     -5.92365496	      1.44045201	    -15.71772774	      3.20221846	      8.57907276	     -7.61451491	     14.74308967	     -5.47682645	     -2.11761156	     -1.42969027	     -2.42818378	     -9.03015615
      0.61733333	     -3.10070876	     -0.56011290	      7.27521831	     -0.77168670	      0.99677716	      0.26151126	     26.78860517	      2.27123160	     -7.18651359	     -1.47096144	      2.87598291	     -6.73720687	      1.55418109	    -15.88248276	      2.95656062	      8.34685706	     -8.09971368	     14.71555148	     -5.21633459	     -2.00222628	     -1.33104080	     -2.17801176	     -9.07707164
      0.62150000	     -3.04912639	     -0.76210241	      7.30135101	     -0.76513132	      0.99638715	      0.26158398	     26.73333963	      2.57431795	     -6.83465368	     -2.10870373	      2.31934720	     -7.58650165	      1.68190330	    -16.04392793	      2.69951702	      8.12107426	     -8.60179009	     14.65854469	     -4.95809189	     -1.86246570	     -1.22532285	     -1.92395440	     -9.12926166
      0.62566667	     -3.01142328	     -0.96189197	      7.33404253	     -0.75853345	      0.99601824	      0.26167514	     26.67513109	      2.87606937	     -6.47318890	     -2.69707047	      1.66489257	     -8.47877560	      1.82398530	    -16.17811859	      2.44018462	      7.88259404	     -9.12227150	     14.56663224	     -4.68817526	     -1.69464370	     -1.09574688	     -1.67698633	     -9.18686308
      0.62983333	     -2.97637363	     -1.16504907	      7.37365139	     -0.75188586	      0.99568949	      0.26176961	     26.60308682	      3.18031902	     -6.13102372	     -3.23920460	      0.93068052	     -9.37202342	      1.97836539	    -16.29261516	      2.17378379	      7.64412364	     -9.67509921	     14.44204901	     -4.41597613	     -1.50021882	     -0.95463011	     -1.43221483	     -9.24623035
      0.63400000	     -2.94922265	     -1.36764763	      7.42010571	     -0.74519986	      0.99539000	      0.26188172	     26.52518224	      3.48316470	     -5.80199726	     -3.73944619	      0.12617771	    -10.26797030	      2.14343611	    -16.39141330	      1.90307792	      7.42588817	    -10.23930848	     14.27537610	     -4.15488899	     -1.27882501	     -0.79674171	     -1.18942363	     -9.31118393
      0.63816667	     -2.86761732	     -1.59579080	      7.45437232	     -0.73845008	      0.99519670	      0.26202785	     26.37735221	      3.82298154	     -5.50900559	     -4.20347150	     -0.68379481	    -11.06784191	      3.17990934	    -16.50589440	      1.58273918	      6.99996905	    -10.87410473	     14.14379416	     -3.60051793	      0.11868704	     -0.69687147	     -0.89374424	     -9.24806140
      0.64233333	     -2.88949081	     -1.76946800	      7.52521024	     -0.73173288	      0.99492962	      0.26214807	     26.33553997	      4.07972832	     -5.22558428	     -4.65811795	     -1.60707632	    -11.95262589	      3.27697437	    -16.53523917	      1.34614076	      6.93921499	    -11.46185820	     13.80110778	     -3.58375227	      0.29420094	     -0.47547987	     -0.71936198	     -9.44551990
      0.64650000	     -2.84710233	     -1.97210718	      7.58836286	     -0.72495669	      0.99479389	      0.26229553	     26.20852793	      4.37810065	     -4.95886295	     -5.07076566	     -2.52454025	    -12.78661395	      3.39751799	    -16.59391427	      1.05653859	      6.71476778	    -12.11579437	     13.50848938	     -3.31555505	      0.52802673	     -0.32561339	     -0.48653158	     -9.50323759
      0.65066667	     -2.83827151	     -2.17276365	      7.65622772	     -0.71816639	      0.99465700	      0.26244549	     26.11943523	      4.66320520	     -4.72807396	     -5.48823599	     -3.41957791	    -13.55112262	      3.53060251	    -16.59087076	      0.76694923	      6.47908126	    -12.81443302	     13.18057533	     -3.02074375	      0.81073020	     -0.12893995	     -0.25934809	     -9.57354935
      0.65483333	     -2.79627914	     -2.37569606	      7.72645479	     -0.71135428	      0.99461607	      0.26261140	     25.99144986	      4.95187948	     -4.53792274	     -5.89993780	     -4.28285688	    -14.25641071	      3.67342592	    -16.60672268	      0.46404132	      6.23016289	    -13.53252220	     12.81677179	     -2.70813739	      1.14348952	      0.03177482	     -0.02942943	     -9.63456136
      0.65900000	     -2.78109770	     -2.57859867	      7.79437297	     -0.70452408	      0.99458497	      0.26278633	     25.90519673	      5.22748723	     -4.42064913	     -6.34466965	     -5.07802310	    -14.80180249	      5.38655970	    -16.55784154	      0.15174524	      5.90504006	    -14.29816418	     12.29419630	     -2.32929425	      5.34144723	      0.23375218	      0.18405863	     -9.66583769
      0.66316667	     -2.72385233	     -2.77572295	      7.87841665	     -0.69771265	      0.99467077	      0.26295286	     25.76266925	      5.49906725	     -4.28819868	     -6.77249796	     -5.84084006	    -15.41545515	      5.37561986	    -16.54733807	     -0.15536391	      5.70934093	    -15.07804433	     11.80866042	     -2.10136935	      5.42362440	      0.36749989	      0.41106073	     -9.75088796
      0.66733333	     -2.69112802	     -2.97251504	      7.95587044	     -0.69089029	      0.99477622	      0.26314500	     25.65853564	      5.76358489	     -4.19045501	     -7.23786774	     -6.50552477	    -15.93188468	      5.37598459	    -16.47167179	     -0.46978469	      5.44024901	    -15.91567297	     11.30164717	     -1.75327413	      5.59553304	      0.54095800	      0.62458151	     -9.80391124
      0.67150000	     -2.63979993	     -3.17479079	      8.03406089	     -0.68407112	      0.99494854	      0.26334456	     25.54178576	      6.03096080	     -4.13372343	     -7.72571034	     -7.08145734	    -16.37891790	      5.38195708	    -16.39049730	     -0.80159000	      5.14326696	    -16.79161724	     10.75440993	     -1.38449460	      5.84389679	      0.69936828	      0.84805951	     -9.85531575
